<?xml version="1.0" encoding="UTF-8" standalone="no"?>
<!DOCTYPE svg PUBLIC "-//W3C//DTD SVG 1.0//EN"
 "http://www.w3.org/TR/2001/REC-SVG-20010904/DTD/svg10.dtd" [
 <!ATTLIST svg xmlns:xlink CDATA #FIXED "http://www.w3.org/1999/xlink">
]>
<!-- Generated by Graphviz version 2.20.3 (Sat Jan 17 18:59:40 UTC 2009)
     For user: (cjang) Chris Jang -->
<!-- Title: G Pages: 1 -->
<svg width="684pt" height="269pt"
 viewBox="0.00 0.00 684.00 268.88" xmlns="http://www.w3.org/2000/svg" xmlns:xlink="http://www.w3.org/1999/xlink">
<g id="graph0" class="graph" transform="scale(0.5625 0.5625) rotate(0) translate(4 474)">
<title>G</title>
<polygon style="fill:white;stroke:white;" points="-4,4 -4,-474 1212,-474 1212,4 -4,4"/>
<g id="cluster2" class="cluster"><title>cluster_4</title>
<polygon style="fill:none;stroke:grey;" points="490,-68 490,-144 763,-144 763,-68 490,-68"/>
<text text-anchor="middle" x="627" y="-127.4" style="font-family:Arial;font-size:14.00;">Auto&#45;tune optimizer</text>
</g>
<g id="cluster3" class="cluster"><title>cluster_1</title>
<polygon style="fill:none;stroke:grey;" points="644,-152 644,-268 1200,-268 1200,-152 644,-152"/>
<text text-anchor="middle" x="922" y="-251.4" style="font-family:Arial;font-size:14.00;">OpenCL wrappers</text>
</g>
<g id="cluster4" class="cluster"><title>cluster_3</title>
<polygon style="fill:none;stroke:grey;" points="8,-147 8,-385 215,-385 215,-147 8,-147"/>
<text text-anchor="middle" x="112" y="-368.4" style="font-family:Arial;font-size:14.00;">GPU kernel source generation</text>
</g>
<g id="cluster5" class="cluster"><title>cluster_0</title>
<polygon style="fill:none;stroke:grey;" points="259,-292 259,-462 770,-462 770,-292 259,-292"/>
<text text-anchor="middle" x="515" y="-445.4" style="font-family:Arial;font-size:14.00;">OpenCL code generation</text>
</g>
<g id="cluster6" class="cluster"><title>cluster_2</title>
<polygon style="fill:none;stroke:grey;" points="254,-154 254,-284 604,-284 604,-154 254,-154"/>
<text text-anchor="middle" x="429" y="-267.4" style="font-family:Arial;font-size:14.00;">Common auto&#45;tune functionality</text>
</g>
<g id="cluster7" class="cluster"><title>cluster_5</title>
<polygon style="fill:none;stroke:grey;" points="235,-16 235,-146 422,-146 422,-16 235,-16"/>
<text text-anchor="middle" x="329" y="-129.4" style="font-family:Arial;font-size:14.00;">Command line applications</text>
</g>
<!-- N17 -->
<g id="node2" class="node"><title>N17</title>
<polygon style="fill:none;stroke:black;" points="754,-112 640,-112 640,-76 754,-76 754,-112"/>
<text text-anchor="middle" x="697" y="-89.4" style="font-family:Arial;font-size:14.00;">KernelInterface</text>
</g>
<!-- N18 -->
<g id="node3" class="node"><title>N18</title>
<polygon style="fill:none;stroke:black;" points="555,-112 499,-112 499,-76 555,-76 555,-112"/>
<text text-anchor="middle" x="527" y="-89.4" style="font-family:Arial;font-size:14.00;">Bench</text>
</g>
<!-- N18&#45;&gt;N17 -->
<g id="edge12" class="edge"><title>N18&#45;&gt;N17</title>
<path style="fill:none;stroke:blue;" d="M556,-94C576,-94 603,-94 629,-94"/>
<polygon style="fill:blue;stroke:blue;" points="629,-97.5001 639,-94 629,-90.5001 629,-97.5001"/>
</g>
<!-- N8 -->
<g id="node8" class="node"><title>N8</title>
<polygon style="fill:none;stroke:black;" points="867,-198 799,-198 799,-162 867,-162 867,-198"/>
<text text-anchor="middle" x="833" y="-175.4" style="font-family:Arial;font-size:14.00;">OCLApp</text>
</g>
<!-- N18&#45;&gt;N8 -->
<g id="edge58" class="edge"><title>N18&#45;&gt;N8</title>
<path style="fill:none;stroke:blue;" d="M556,-80C604,-60 702,-27 770,-67 801,-86 818,-125 826,-152"/>
<polygon style="fill:blue;stroke:blue;" points="822.774,-153.427 829,-162 829.479,-151.416 822.774,-153.427"/>
</g>
<!-- N5 -->
<g id="node5" class="node"><title>N5</title>
<polygon style="fill:none;stroke:black;" points="1192,-216 1120,-216 1120,-180 1192,-180 1192,-216"/>
<text text-anchor="middle" x="1156" y="-193.4" style="font-family:Arial;font-size:14.00;">OCLSTL</text>
</g>
<!-- N6 -->
<g id="node6" class="node"><title>N6</title>
<polygon style="fill:none;stroke:black;" points="1084,-216 1018,-216 1018,-180 1084,-180 1084,-216"/>
<text text-anchor="middle" x="1051" y="-193.4" style="font-family:Arial;font-size:14.00;">OCLUtil</text>
</g>
<!-- N6&#45;&gt;N5 -->
<g id="edge46" class="edge"><title>N6&#45;&gt;N5</title>
<path style="fill:none;stroke:blue;" d="M1084,-198C1092,-198 1101,-198 1110,-198"/>
<polygon style="fill:blue;stroke:blue;" points="1110,-201.5 1120,-198 1110,-194.5 1110,-201.5"/>
</g>
<!-- N7 -->
<g id="node7" class="node"><title>N7</title>
<polygon style="fill:none;stroke:black;" points="982,-236 904,-236 904,-200 982,-200 982,-236"/>
<text text-anchor="middle" x="943" y="-213.4" style="font-family:Arial;font-size:14.00;">OCLBase</text>
</g>
<!-- N7&#45;&gt;N5 -->
<g id="edge64" class="edge"><title>N7&#45;&gt;N5</title>
<path style="fill:none;stroke:blue;" d="M982,-225C1011,-229 1050,-232 1084,-225 1093,-224 1102,-221 1110,-218"/>
<polygon style="fill:blue;stroke:blue;" points="1111.43,-221.226 1120,-215 1109.42,-214.521 1111.43,-221.226"/>
</g>
<!-- N7&#45;&gt;N6 -->
<g id="edge60" class="edge"><title>N7&#45;&gt;N6</title>
<path style="fill:none;stroke:blue;" d="M982,-211C991,-210 999,-208 1008,-206"/>
<polygon style="fill:blue;stroke:blue;" points="1008.88,-209.393 1018,-204 1007.51,-202.529 1008.88,-209.393"/>
</g>
<!-- N8&#45;&gt;N5 -->
<g id="edge20" class="edge"><title>N8&#45;&gt;N5</title>
<path style="fill:none;stroke:blue;" d="M868,-174C916,-167 1008,-158 1084,-171 1093,-172 1102,-175 1111,-179"/>
<polygon style="fill:blue;stroke:blue;" points="1109.41,-182.158 1120,-182 1111.62,-175.517 1109.41,-182.158"/>
</g>
<!-- N8&#45;&gt;N6 -->
<g id="edge40" class="edge"><title>N8&#45;&gt;N6</title>
<path style="fill:none;stroke:blue;" d="M868,-183C898,-185 943,-188 982,-191 991,-192 999,-192 1008,-194"/>
<polygon style="fill:blue;stroke:blue;" points="1007.7,-197.488 1018,-195 1008.4,-190.522 1007.7,-197.488"/>
</g>
<!-- N8&#45;&gt;N7 -->
<g id="edge54" class="edge"><title>N8&#45;&gt;N7</title>
<path style="fill:none;stroke:blue;" d="M868,-192C876,-195 885,-198 894,-201"/>
<polygon style="fill:blue;stroke:blue;" points="893.416,-204.479 904,-204 895.427,-197.774 893.416,-204.479"/>
</g>
<!-- N9 -->
<g id="node9" class="node"><title>N9</title>
<polygon style="fill:none;stroke:black;" points="742,-198 652,-198 652,-162 742,-162 742,-198"/>
<text text-anchor="middle" x="697" y="-175.4" style="font-family:Arial;font-size:14.00;">OCLAppUtil</text>
</g>
<!-- N9&#45;&gt;N8 -->
<g id="edge10" class="edge"><title>N9&#45;&gt;N8</title>
<path style="fill:none;stroke:blue;" d="M742,-180C756,-180 773,-180 788,-180"/>
<polygon style="fill:blue;stroke:blue;" points="788,-183.5 798,-180 788,-176.5 788,-183.5"/>
</g>
<!-- N13 -->
<g id="node11" class="node"><title>N13</title>
<polygon style="fill:none;stroke:black;" points="183,-353 39,-353 39,-317 183,-317 183,-353"/>
<text text-anchor="middle" x="111" y="-330.4" style="font-family:Arial;font-size:14.00;">KernelMatmulBuffer</text>
</g>
<!-- N4 -->
<g id="node20" class="node"><title>N4</title>
<polygon style="fill:none;stroke:black;" points="388,-346 268,-346 268,-310 388,-310 388,-346"/>
<text text-anchor="middle" x="328" y="-323.4" style="font-family:Arial;font-size:14.00;">GatlasCodeText</text>
</g>
<!-- N13&#45;&gt;N4 -->
<g id="edge32" class="edge"><title>N13&#45;&gt;N4</title>
<path style="fill:none;stroke:blue;" d="M183,-333C207,-332 233,-331 257,-330"/>
<polygon style="fill:blue;stroke:blue;" points="257,-333.5 267,-330 257,-326.5 257,-333.5"/>
</g>
<!-- N11 -->
<g id="node23" class="node"><title>N11</title>
<polygon style="fill:none;stroke:black;" points="380,-252 276,-252 276,-216 380,-216 380,-252"/>
<text text-anchor="middle" x="328" y="-229.4" style="font-family:Arial;font-size:14.00;">KernelMatmul</text>
</g>
<!-- N13&#45;&gt;N11 -->
<g id="edge48" class="edge"><title>N13&#45;&gt;N11</title>
<path style="fill:none;stroke:grey;" d="M183,-322C194,-318 205,-314 215,-308 226,-302 226,-296 235,-288 250,-276 267,-266 283,-257"/>
<polygon style="fill:grey;stroke:grey;" points="284.958,-259.916 292,-252 281.559,-253.797 284.958,-259.916"/>
</g>
<!-- N14 -->
<g id="node12" class="node"><title>N14</title>
<polygon style="fill:none;stroke:black;" points="184,-299 38,-299 38,-263 184,-263 184,-299"/>
<text text-anchor="middle" x="111" y="-276.4" style="font-family:Arial;font-size:14.00;">KernelMatmulImage</text>
</g>
<!-- N14&#45;&gt;N4 -->
<g id="edge50" class="edge"><title>N14&#45;&gt;N4</title>
<path style="fill:none;stroke:blue;" d="M184,-297C208,-302 234,-307 257,-313"/>
<polygon style="fill:blue;stroke:blue;" points="256.508,-316.471 267,-315 257.881,-309.607 256.508,-316.471"/>
</g>
<!-- N14&#45;&gt;N11 -->
<g id="edge26" class="edge"><title>N14&#45;&gt;N11</title>
<path style="fill:none;stroke:grey;" d="M184,-265C210,-260 240,-254 265,-248"/>
<polygon style="fill:grey;stroke:grey;" points="265.881,-251.393 275,-246 264.508,-244.529 265.881,-251.393"/>
</g>
<!-- N15 -->
<g id="node13" class="node"><title>N15</title>
<polygon style="fill:none;stroke:black;" points="196,-245 26,-245 26,-209 196,-209 196,-245"/>
<text text-anchor="middle" x="111" y="-222.4" style="font-family:Arial;font-size:14.00;">KernelGenMatmulBuffer</text>
</g>
<!-- N15&#45;&gt;N4 -->
<g id="edge62" class="edge"><title>N15&#45;&gt;N4</title>
<path style="fill:none;stroke:blue;" d="M197,-243C203,-246 209,-250 215,-254 229,-265 222,-277 235,-288 242,-295 252,-300 261,-305"/>
<polygon style="fill:blue;stroke:blue;" points="259.559,-308.203 270,-310 262.958,-302.084 259.559,-308.203"/>
</g>
<!-- N12 -->
<g id="node24" class="node"><title>N12</title>
<polygon style="fill:none;stroke:black;" points="394,-198 262,-198 262,-162 394,-162 394,-198"/>
<text text-anchor="middle" x="328" y="-175.4" style="font-family:Arial;font-size:14.00;">KernelGenMatmul</text>
</g>
<!-- N15&#45;&gt;N12 -->
<g id="edge24" class="edge"><title>N15&#45;&gt;N12</title>
<path style="fill:none;stroke:grey;" d="M194,-209C213,-205 233,-200 252,-196"/>
<polygon style="fill:grey;stroke:grey;" points="252.881,-199.393 262,-194 251.508,-192.529 252.881,-199.393"/>
</g>
<!-- N16 -->
<g id="node14" class="node"><title>N16</title>
<polygon style="fill:none;stroke:black;" points="197,-191 25,-191 25,-155 197,-155 197,-191"/>
<text text-anchor="middle" x="111" y="-168.4" style="font-family:Arial;font-size:14.00;">KernelGenMatmulImage</text>
</g>
<!-- N16&#45;&gt;N4 -->
<g id="edge56" class="edge"><title>N16&#45;&gt;N4</title>
<path style="fill:none;stroke:blue;" d="M197,-187C204,-190 210,-195 215,-200 243,-229 210,-258 235,-288 242,-295 250,-302 258,-307"/>
<polygon style="fill:blue;stroke:blue;" points="256.559,-310.203 267,-312 259.958,-304.084 256.559,-310.203"/>
</g>
<!-- N16&#45;&gt;N12 -->
<g id="edge18" class="edge"><title>N16&#45;&gt;N12</title>
<path style="fill:none;stroke:grey;" d="M197,-176C215,-177 234,-177 252,-178"/>
<polygon style="fill:grey;stroke:grey;" points="252,-181.5 262,-178 252,-174.5 252,-181.5"/>
</g>
<!-- N0 -->
<g id="node16" class="node"><title>N0</title>
<polygon style="fill:none;stroke:black;" points="742,-346 652,-346 652,-310 742,-310 742,-346"/>
<text text-anchor="middle" x="697" y="-323.4" style="font-family:Arial;font-size:14.00;">GatlasType</text>
</g>
<!-- N1 -->
<g id="node17" class="node"><title>N1</title>
<polygon style="fill:none;stroke:black;" points="761,-415 633,-415 633,-379 761,-379 761,-415"/>
<text text-anchor="middle" x="697" y="-392.4" style="font-family:Arial;font-size:14.00;">GatlasFormatting</text>
</g>
<!-- N2 -->
<g id="node18" class="node"><title>N2</title>
<polygon style="fill:none;stroke:black;" points="585,-410 469,-410 469,-374 585,-374 585,-410"/>
<text text-anchor="middle" x="527" y="-387.4" style="font-family:Arial;font-size:14.00;">GatlasOperator</text>
</g>
<!-- N3 -->
<g id="node19" class="node"><title>N3</title>
<polygon style="fill:none;stroke:black;" points="582,-356 472,-356 472,-320 582,-320 582,-356"/>
<text text-anchor="middle" x="527" y="-333.4" style="font-family:Arial;font-size:14.00;">GatlasQualifier</text>
</g>
<!-- N3&#45;&gt;N0 -->
<g id="edge16" class="edge"><title>N3&#45;&gt;N0</title>
<path style="fill:none;stroke:blue;" d="M583,-335C602,-334 623,-333 642,-332"/>
<polygon style="fill:blue;stroke:blue;" points="642.398,-335.478 652,-331 641.701,-328.512 642.398,-335.478"/>
</g>
<!-- N3&#45;&gt;N1 -->
<g id="edge34" class="edge"><title>N3&#45;&gt;N1</title>
<path style="fill:none;stroke:blue;" d="M579,-356C597,-362 617,-369 635,-376"/>
<polygon style="fill:blue;stroke:blue;" points="634.416,-379.479 645,-379 636.427,-372.774 634.416,-379.479"/>
</g>
<!-- N4&#45;&gt;N0 -->
<g id="edge42" class="edge"><title>N4&#45;&gt;N0</title>
<path style="fill:none;stroke:blue;" d="M389,-318C411,-315 435,-313 458,-311 523,-307 540,-306 604,-311 616,-312 630,-314 642,-316"/>
<polygon style="fill:blue;stroke:blue;" points="641.508,-319.471 652,-318 642.881,-312.607 641.508,-319.471"/>
</g>
<!-- N4&#45;&gt;N1 -->
<g id="edge52" class="edge"><title>N4&#45;&gt;N1</title>
<path style="fill:none;stroke:blue;" d="M346,-346C370,-368 413,-404 458,-419 513,-437 580,-428 628,-417"/>
<polygon style="fill:blue;stroke:blue;" points="628.881,-420.393 638,-415 627.508,-413.529 628.881,-420.393"/>
</g>
<!-- N4&#45;&gt;N2 -->
<g id="edge44" class="edge"><title>N4&#45;&gt;N2</title>
<path style="fill:none;stroke:blue;" d="M384,-346C408,-354 436,-363 461,-371"/>
<polygon style="fill:blue;stroke:blue;" points="460.416,-374.479 471,-374 462.427,-367.774 460.416,-374.479"/>
</g>
<!-- N4&#45;&gt;N3 -->
<g id="edge36" class="edge"><title>N4&#45;&gt;N3</title>
<path style="fill:none;stroke:blue;" d="M389,-331C412,-332 438,-333 461,-335"/>
<polygon style="fill:blue;stroke:blue;" points="461,-338.5 471,-335 461,-331.5 461,-338.5"/>
</g>
<!-- N10 -->
<g id="node22" class="node"><title>N10</title>
<polygon style="fill:none;stroke:black;" points="596,-198 458,-198 458,-162 596,-162 596,-198"/>
<text text-anchor="middle" x="527" y="-175.4" style="font-family:Arial;font-size:14.00;">KernelBaseMatmul</text>
</g>
<!-- N10&#45;&gt;N17 -->
<g id="edge30" class="edge"><title>N10&#45;&gt;N17</title>
<path style="fill:none;stroke:grey;" d="M574,-162C584,-158 594,-153 604,-148 623,-139 643,-127 659,-117"/>
<polygon style="fill:grey;stroke:grey;" points="660.958,-119.916 668,-112 657.559,-113.797 660.958,-119.916"/>
</g>
<!-- N10&#45;&gt;N9 -->
<g id="edge14" class="edge"><title>N10&#45;&gt;N9</title>
<path style="fill:none;stroke:blue;" d="M596,-180C611,-180 627,-180 642,-180"/>
<polygon style="fill:blue;stroke:blue;" points="642,-183.5 652,-180 642,-176.5 642,-183.5"/>
</g>
<!-- N11&#45;&gt;N10 -->
<g id="edge28" class="edge"><title>N11&#45;&gt;N10</title>
<path style="fill:none;stroke:grey;" d="M381,-220C403,-214 428,-207 451,-201"/>
<polygon style="fill:grey;stroke:grey;" points="452.427,-204.226 461,-198 450.416,-197.521 452.427,-204.226"/>
</g>
<!-- N12&#45;&gt;N10 -->
<g id="edge8" class="edge"><title>N12&#45;&gt;N10</title>
<path style="fill:none;stroke:grey;" d="M394,-180C412,-180 430,-180 448,-180"/>
<polygon style="fill:grey;stroke:grey;" points="448,-183.5 458,-180 448,-176.5 448,-183.5"/>
</g>
<!-- N19 -->
<g id="node26" class="node"><title>N19</title>
<polygon style="fill:none;stroke:black;" points="379,-60 277,-60 277,-24 379,-24 379,-60"/>
<text text-anchor="middle" x="328" y="-37.4" style="font-family:Arial;font-size:14.00;">benchMatmul</text>
</g>
<!-- N19&#45;&gt;N18 -->
<g id="edge38" class="edge"><title>N19&#45;&gt;N18</title>
<path style="fill:none;stroke:blue;" d="M379,-55C413,-64 457,-75 488,-84"/>
<polygon style="fill:blue;stroke:blue;" points="487.416,-87.4788 498,-87 489.427,-80.7741 487.416,-87.4788"/>
</g>
<!-- N20 -->
<g id="node27" class="node"><title>N20</title>
<polygon style="fill:none;stroke:black;" points="374,-114 282,-114 282,-78 374,-78 374,-114"/>
<text text-anchor="middle" x="328" y="-91.4" style="font-family:Arial;font-size:14.00;">printMatmul</text>
</g>
<!-- N20&#45;&gt;N10 -->
<g id="edge22" class="edge"><title>N20&#45;&gt;N10</title>
<path style="fill:none;stroke:blue;" d="M371,-114C401,-127 442,-144 475,-158"/>
<polygon style="fill:blue;stroke:blue;" points="473.44,-161.137 484,-162 476.283,-154.74 473.44,-161.137"/>
</g>
</g>
</svg>
